<?xml version="1.0" encoding="UTF-8"?><svg xmlns="http://www.w3.org/2000/svg" xmlns:xlink="http://www.w3.org/1999/xlink" fill-opacity="1" color-rendering="auto" color-interpolation="auto" text-rendering="auto" stroke="black" stroke-linecap="square" width="2700" stroke-miterlimit="10" shape-rendering="auto" stroke-opacity="1" fill="black" stroke-dasharray="none" font-weight="normal" stroke-width="1" height="1808" font-family="'Dialog'" font-style="normal" stroke-linejoin="miter" font-size="12px" stroke-dashoffset="0" image-rendering="auto">
  <!--Generated by ySVG 2.6-->
  <defs id="genericDefs"/>
  <g>
    <defs id="defs1">
      <clipPath clipPathUnits="userSpaceOnUse" id="clipPath1">
        <path d="M0 0 L2700 0 L2700 1808 L0 1808 L0 0 Z"/>
      </clipPath>
      <clipPath clipPathUnits="userSpaceOnUse" id="clipPath2">
        <path d="M-301 -1151 L3818.873 -1151 L3818.873 1607.7891 L-301 1607.7891 L-301 -1151 Z"/>
      </clipPath>
    </defs>
    <g fill="white" text-rendering="geometricPrecision" shape-rendering="geometricPrecision" transform="scale(0.6554,0.6554) translate(301,1151)" stroke="white">
      <rect x="-301" width="4120" height="2759" y="-1151" clip-path="url(#clipPath2)" stroke="none"/>
    </g>
    <g fill="rgb(253,223,187)" text-rendering="geometricPrecision" shape-rendering="geometricPrecision" transform="matrix(0.6554,0,0,0.6554,197.2634,754.3194)" stroke="rgb(253,223,187)">
      <ellipse rx="225" ry="150" clip-path="url(#clipPath2)" cx="-29.4168" cy="249.7594" stroke="none"/>
    </g>
    <g text-rendering="geometricPrecision" stroke-miterlimit="1.45" stroke-width="5" shape-rendering="geometricPrecision" transform="matrix(0.6554,0,0,0.6554,197.2634,754.3194)" stroke-linecap="butt">
      <ellipse rx="225" fill="none" ry="150" clip-path="url(#clipPath2)" cx="-29.4168" cy="249.7594"/>
      <text x="-118.3816" font-size="80px" y="281.1852" clip-path="url(#clipPath2)" font-family="sans-serif" stroke="none" stroke-width="1" xml:space="preserve">Input</text>
    </g>
    <g fill="rgb(253,223,187)" text-rendering="geometricPrecision" shape-rendering="geometricPrecision" transform="matrix(0.6554,0,0,0.6554,197.2634,754.3194)" stroke="rgb(253,223,187)">
      <ellipse rx="225" ry="150" clip-path="url(#clipPath2)" cx="730.8969" cy="249.7594" stroke="none"/>
    </g>
    <g text-rendering="geometricPrecision" stroke-miterlimit="1.45" stroke-width="5" shape-rendering="geometricPrecision" transform="matrix(0.6554,0,0,0.6554,197.2634,754.3194)" stroke-linecap="butt">
      <ellipse rx="225" fill="none" ry="150" clip-path="url(#clipPath2)" cx="730.8969" cy="249.7594"/>
      <text x="604.1195" font-size="80px" y="281.1852" clip-path="url(#clipPath2)" font-family="sans-serif" stroke="none" stroke-width="1" xml:space="preserve">Stage1</text>
    </g>
    <g fill="rgb(253,223,187)" text-rendering="geometricPrecision" shape-rendering="geometricPrecision" transform="matrix(0.6554,0,0,0.6554,197.2634,754.3194)" stroke="rgb(253,223,187)">
      <ellipse rx="350" ry="150" clip-path="url(#clipPath2)" cx="730.8969" cy="681.7687" stroke="none"/>
    </g>
    <g text-rendering="geometricPrecision" stroke-miterlimit="1.45" stroke-width="5" shape-rendering="geometricPrecision" transform="matrix(0.6554,0,0,0.6554,197.2634,754.3194)" stroke-linecap="butt">
      <ellipse rx="350" fill="none" ry="150" clip-path="url(#clipPath2)" cx="730.8969" cy="681.7687"/>
      <text x="426.268" font-size="80px" y="713.1945" clip-path="url(#clipPath2)" font-family="sans-serif" stroke="none" stroke-width="1" xml:space="preserve">Model Data Input</text>
    </g>
    <g fill="rgb(253,223,187)" text-rendering="geometricPrecision" shape-rendering="geometricPrecision" transform="matrix(0.6554,0,0,0.6554,197.2634,754.3194)" stroke="rgb(253,223,187)">
      <ellipse rx="225" ry="150" clip-path="url(#clipPath2)" cx="1628.3203" cy="465.7641" stroke="none"/>
    </g>
    <g text-rendering="geometricPrecision" stroke-miterlimit="1.45" stroke-width="5" shape-rendering="geometricPrecision" transform="matrix(0.6554,0,0,0.6554,197.2634,754.3194)" stroke-linecap="butt">
      <ellipse rx="225" fill="none" ry="150" clip-path="url(#clipPath2)" cx="1628.3203" cy="465.7641"/>
      <text x="1501.543" font-size="80px" y="497.1898" clip-path="url(#clipPath2)" font-family="sans-serif" stroke="none" stroke-width="1" xml:space="preserve">Stage1</text>
    </g>
    <g fill="rgb(253,223,187)" text-rendering="geometricPrecision" shape-rendering="geometricPrecision" transform="matrix(0.6554,0,0,0.6554,197.2634,754.3194)" stroke="rgb(253,223,187)">
      <ellipse rx="225" ry="150" clip-path="url(#clipPath2)" cx="2525.7438" cy="465.7641" stroke="none"/>
    </g>
    <g text-rendering="geometricPrecision" stroke-miterlimit="1.45" stroke-width="5" shape-rendering="geometricPrecision" transform="matrix(0.6554,0,0,0.6554,197.2634,754.3194)" stroke-linecap="butt">
      <ellipse rx="225" fill="none" ry="150" clip-path="url(#clipPath2)" cx="2525.7438" cy="465.7641"/>
      <text x="2398.9663" font-size="80px" y="497.1898" clip-path="url(#clipPath2)" font-family="sans-serif" stroke="none" stroke-width="1" xml:space="preserve">Stage3</text>
    </g>
    <g fill="rgb(253,223,187)" text-rendering="geometricPrecision" shape-rendering="geometricPrecision" transform="matrix(0.6554,0,0,0.6554,197.2634,754.3194)" stroke="rgb(253,223,187)">
      <ellipse rx="225" ry="150" clip-path="url(#clipPath2)" cx="3423.1672" cy="249.7594" stroke="none"/>
    </g>
    <g text-rendering="geometricPrecision" stroke-miterlimit="1.45" stroke-width="5" shape-rendering="geometricPrecision" transform="matrix(0.6554,0,0,0.6554,197.2634,754.3194)" stroke-linecap="butt">
      <ellipse rx="225" fill="none" ry="150" clip-path="url(#clipPath2)" cx="3423.1672" cy="249.7594"/>
      <text x="3303.0891" font-size="80px" y="281.1852" clip-path="url(#clipPath2)" font-family="sans-serif" stroke="none" stroke-width="1" xml:space="preserve">Output</text>
    </g>
    <g fill="rgb(253,223,187)" text-rendering="geometricPrecision" shape-rendering="geometricPrecision" transform="matrix(0.6554,0,0,0.6554,197.2634,754.3194)" stroke="rgb(253,223,187)">
      <ellipse rx="350" ry="150" clip-path="url(#clipPath2)" cx="3423.1672" cy="681.7687" stroke="none"/>
    </g>
    <g text-rendering="geometricPrecision" stroke-miterlimit="1.45" stroke-width="5" shape-rendering="geometricPrecision" transform="matrix(0.6554,0,0,0.6554,197.2634,754.3194)" stroke-linecap="butt">
      <ellipse rx="350" fill="none" ry="150" clip-path="url(#clipPath2)" cx="3423.1672" cy="681.7687"/>
      <text x="3087.425" font-size="80px" y="713.1945" clip-path="url(#clipPath2)" font-family="sans-serif" stroke="none" stroke-width="1" xml:space="preserve">Model Data Output</text>
      <path fill="none" d="M195.5832 249.7594 L491.8969 249.7594" stroke-width="7" clip-path="url(#clipPath2)"/>
      <path d="M505.8969 249.7594 L484.8969 241.0094 L490.1469 249.7594 L484.8969 258.5094 Z" stroke-width="7" clip-path="url(#clipPath2)" stroke="none"/>
      <text x="291.1075" font-size="55px" y="233.6744" clip-path="url(#clipPath2)" font-family="sans-serif" stroke="none" stroke-width="1" xml:space="preserve">input</text>
      <path fill="none" d="M942.5262 300.6974 L1403.0797 411.5499" stroke-width="7" clip-path="url(#clipPath2)"/>
      <path d="M1416.691 414.8261 L1398.3218 401.4048 L1401.3784 411.1404 L1394.2266 418.4189 Z" stroke-width="7" clip-path="url(#clipPath2)" stroke="none"/>
      <text x="1103.1511" font-size="55px" y="322.7925" clip-path="url(#clipPath2)" font-family="sans-serif" stroke="none" stroke-width="1" xml:space="preserve">output</text>
      <path fill="none" d="M1036.063 608.317 L1403.0797 519.9782" stroke-width="7" clip-path="url(#clipPath2)"/>
      <path d="M1416.6909 516.702 L1394.2264 513.1093 L1401.3783 520.3878 L1398.3217 530.1234 Z" stroke-width="7" clip-path="url(#clipPath2)" stroke="none"/>
      <text x="1086.7635" font-size="55px" y="626.3282" clip-path="url(#clipPath2)" font-family="sans-serif" stroke="none" stroke-width="1" xml:space="preserve">modelDataInput</text>
      <path fill="none" d="M1853.3203 465.7641 L2286.7437 465.7641" stroke-width="7" clip-path="url(#clipPath2)"/>
      <path d="M2300.7437 465.7641 L2279.7437 457.0141 L2284.9937 465.7641 L2279.7437 474.5141 Z" stroke-width="7" clip-path="url(#clipPath2)" stroke="none"/>
      <text x="1992.9207" font-size="55px" y="449.6791" clip-path="url(#clipPath2)" font-family="sans-serif" stroke="none" stroke-width="1" xml:space="preserve">ouput2</text>
      <path fill="none" d="M2737.373 414.8261 L3197.9265 303.9735" stroke-width="7" clip-path="url(#clipPath2)"/>
      <path d="M3211.5378 300.6974 L3189.0732 297.1045 L3196.2251 304.383 L3193.1685 314.1186 Z" stroke-width="7" clip-path="url(#clipPath2)" stroke="none"/>
      <text x="2882.7039" font-size="55px" y="319.1113" clip-path="url(#clipPath2)" font-family="sans-serif" stroke="none" stroke-width="1" xml:space="preserve">output3</text>
      <path fill="none" d="M2737.373 516.702 L3104.3899 605.0408" stroke-width="7" clip-path="url(#clipPath2)"/>
      <path d="M3118.0012 608.3171 L3099.6321 594.8957 L3102.6885 604.6313 L3095.5366 611.9098 Z" stroke-width="7" clip-path="url(#clipPath2)" stroke="none"/>
      <text x="2641.0913" font-size="55px" y="641.3634" clip-path="url(#clipPath2)" font-family="sans-serif" stroke="none" stroke-width="1" xml:space="preserve">modelDataOutput</text>
    </g>
  </g>
</svg>
