<?xml version="1.0" encoding="UTF-8"?><svg xmlns="http://www.w3.org/2000/svg" xmlns:xlink="http://www.w3.org/1999/xlink" fill-opacity="1" color-rendering="auto" color-interpolation="auto" text-rendering="auto" stroke="black" stroke-linecap="square" width="2700" stroke-miterlimit="10" shape-rendering="auto" stroke-opacity="1" fill="black" stroke-dasharray="none" font-weight="normal" stroke-width="1" height="1808" font-family="'Dialog'" font-style="normal" stroke-linejoin="miter" font-size="12px" stroke-dashoffset="0" image-rendering="auto">
  <!--Generated by ySVG 2.6-->
  <defs id="genericDefs"/>
  <g>
    <defs id="defs1">
      <clipPath clipPathUnits="userSpaceOnUse" id="clipPath1">
        <path d="M0 0 L2700 0 L2700 1808 L0 1808 L0 0 Z"/>
      </clipPath>
      <clipPath clipPathUnits="userSpaceOnUse" id="clipPath2">
        <path d="M498 9 L2413.8743 9 L2413.8743 1291.9261 L498 1291.9261 L498 9 Z"/>
      </clipPath>
    </defs>
    <g fill="white" text-rendering="geometricPrecision" shape-rendering="geometricPrecision" transform="scale(1.4093,1.4093) translate(-498,-9)" stroke="white">
      <rect x="498" width="1916" height="1283" y="9" clip-path="url(#clipPath2)" stroke="none"/>
    </g>
    <g fill="rgb(253,223,187)" text-rendering="geometricPrecision" shape-rendering="geometricPrecision" transform="matrix(1.4093,0,0,1.4093,-701.8206,-12.6835)" stroke="rgb(253,223,187)">
      <circle r="150" clip-path="url(#clipPath2)" cx="842.4" cy="400" stroke="none"/>
    </g>
    <g text-rendering="geometricPrecision" stroke-miterlimit="1.45" stroke-width="5" shape-rendering="geometricPrecision" transform="matrix(1.4093,0,0,1.4093,-701.8206,-12.6835)" stroke-linecap="butt">
      <circle fill="none" r="150" clip-path="url(#clipPath2)" cx="842.4" cy="400"/>
      <text x="771.2281" font-size="80px" y="431.4258" clip-path="url(#clipPath2)" font-family="sans-serif" stroke="none" stroke-width="1" xml:space="preserve">A#1</text>
    </g>
    <g fill="rgb(253,223,187)" text-rendering="geometricPrecision" shape-rendering="geometricPrecision" transform="matrix(1.4093,0,0,1.4093,-701.8206,-12.6835)" stroke="rgb(253,223,187)">
      <circle r="150" clip-path="url(#clipPath2)" cx="2073.1369" cy="400" stroke="none"/>
    </g>
    <g text-rendering="geometricPrecision" stroke-miterlimit="1.45" stroke-width="5" shape-rendering="geometricPrecision" transform="matrix(1.4093,0,0,1.4093,-701.8206,-12.6835)" stroke-linecap="butt">
      <circle fill="none" r="150" clip-path="url(#clipPath2)" cx="2073.1369" cy="400"/>
      <text x="2001.965" font-size="80px" y="431.4258" clip-path="url(#clipPath2)" font-family="sans-serif" stroke="none" stroke-width="1" xml:space="preserve">B#1</text>
    </g>
    <g fill="rgb(253,223,187)" text-rendering="geometricPrecision" shape-rendering="geometricPrecision" transform="matrix(1.4093,0,0,1.4093,-701.8206,-12.6835)" stroke="rgb(253,223,187)">
      <circle r="150" clip-path="url(#clipPath2)" cx="842.4" cy="951.1609" stroke="none"/>
    </g>
    <g text-rendering="geometricPrecision" stroke-miterlimit="1.45" stroke-width="5" shape-rendering="geometricPrecision" transform="matrix(1.4093,0,0,1.4093,-701.8206,-12.6835)" stroke-linecap="butt">
      <circle fill="none" r="150" clip-path="url(#clipPath2)" cx="842.4" cy="951.1609"/>
      <text x="771.2281" font-size="80px" y="982.5867" clip-path="url(#clipPath2)" font-family="sans-serif" stroke="none" stroke-width="1" xml:space="preserve">A#2</text>
    </g>
    <g fill="rgb(253,223,187)" text-rendering="geometricPrecision" shape-rendering="geometricPrecision" transform="matrix(1.4093,0,0,1.4093,-701.8206,-12.6835)" stroke="rgb(253,223,187)">
      <circle r="150" clip-path="url(#clipPath2)" cx="2073.1369" cy="951.1609" stroke="none"/>
    </g>
    <g text-rendering="geometricPrecision" stroke-miterlimit="1.45" stroke-width="5" shape-rendering="geometricPrecision" transform="matrix(1.4093,0,0,1.4093,-701.8206,-12.6835)" stroke-linecap="butt">
      <circle fill="none" r="150" clip-path="url(#clipPath2)" cx="2073.1369" cy="951.1609"/>
      <text x="2001.965" font-size="80px" y="982.5867" clip-path="url(#clipPath2)" font-family="sans-serif" stroke="none" stroke-width="1" xml:space="preserve">B#2</text>
    </g>
    <g fill="rgb(177,212,234)" text-rendering="geometricPrecision" shape-rendering="geometricPrecision" transform="matrix(1.4093,0,0,1.4093,-701.8206,-12.6835)" stroke="rgb(177,212,234)">
      <rect x="1264.0901" width="75" height="75" y="292.5" clip-path="url(#clipPath2)" stroke="none"/>
    </g>
    <g text-rendering="geometricPrecision" stroke-miterlimit="1.45" stroke-width="3" shape-rendering="geometricPrecision" transform="matrix(1.4093,0,0,1.4093,-701.8206,-12.6835)" stroke-linecap="butt">
      <rect fill="none" x="1264.0901" width="75" height="75" y="292.5" clip-path="url(#clipPath2)"/>
    </g>
    <g fill="rgb(102,190,142)" text-rendering="geometricPrecision" shape-rendering="geometricPrecision" transform="matrix(1.4093,0,0,1.4093,-701.8206,-12.6835)" stroke="rgb(102,190,142)">
      <rect x="1420.2684" width="75" height="75" y="292.5" clip-path="url(#clipPath2)" stroke="none"/>
    </g>
    <g text-rendering="geometricPrecision" stroke-miterlimit="1.45" stroke-width="3" shape-rendering="geometricPrecision" transform="matrix(1.4093,0,0,1.4093,-701.8206,-12.6835)" stroke-linecap="butt">
      <rect fill="none" x="1420.2684" width="75" height="75" y="292.5" clip-path="url(#clipPath2)"/>
    </g>
    <g fill="rgb(102,190,142)" text-rendering="geometricPrecision" shape-rendering="geometricPrecision" transform="matrix(1.4093,0,0,1.4093,-701.8206,-12.6835)" stroke="rgb(102,190,142)">
      <rect x="1576.4468" width="75" height="75" y="292.5" clip-path="url(#clipPath2)" stroke="none"/>
    </g>
    <g text-rendering="geometricPrecision" stroke-miterlimit="1.45" stroke-width="3" shape-rendering="geometricPrecision" transform="matrix(1.4093,0,0,1.4093,-701.8206,-12.6835)" stroke-linecap="butt">
      <rect fill="none" x="1576.4468" width="75" height="75" y="292.5" clip-path="url(#clipPath2)"/>
    </g>
    <g fill="rgb(177,212,234)" text-rendering="geometricPrecision" shape-rendering="geometricPrecision" transform="matrix(1.4093,0,0,1.4093,-701.8206,-12.6835)" stroke="rgb(177,212,234)">
      <circle r="37.5" clip-path="url(#clipPath2)" cx="1301.5901" cy="886.6633" stroke="none"/>
    </g>
    <g text-rendering="geometricPrecision" stroke-miterlimit="1.45" stroke-width="3" shape-rendering="geometricPrecision" transform="matrix(1.4093,0,0,1.4093,-701.8206,-12.6835)" stroke-linecap="butt">
      <circle fill="none" r="37.5" clip-path="url(#clipPath2)" cx="1301.5901" cy="886.6633"/>
    </g>
    <g fill="rgb(102,190,142)" text-rendering="geometricPrecision" shape-rendering="geometricPrecision" transform="matrix(1.4093,0,0,1.4093,-701.8206,-12.6835)" stroke="rgb(102,190,142)">
      <circle r="37.5" clip-path="url(#clipPath2)" cx="1613.9468" cy="886.6633" stroke="none"/>
    </g>
    <g text-rendering="geometricPrecision" stroke-miterlimit="1.45" stroke-width="3" shape-rendering="geometricPrecision" transform="matrix(1.4093,0,0,1.4093,-701.8206,-12.6835)" stroke-linecap="butt">
      <circle fill="none" r="37.5" clip-path="url(#clipPath2)" cx="1613.9468" cy="886.6633"/>
    </g>
    <g fill="rgb(177,212,234)" text-rendering="geometricPrecision" shape-rendering="geometricPrecision" transform="matrix(1.4093,0,0,1.4093,-701.8206,-12.6835)" stroke="rgb(177,212,234)">
      <circle r="37.5" clip-path="url(#clipPath2)" cx="1457.7684" cy="886.6633" stroke="none"/>
    </g>
    <g text-rendering="geometricPrecision" stroke-miterlimit="1.45" stroke-width="3" shape-rendering="geometricPrecision" transform="matrix(1.4093,0,0,1.4093,-701.8206,-12.6835)" stroke-linecap="butt">
      <circle fill="none" r="37.5" clip-path="url(#clipPath2)" cx="1457.7684" cy="886.6633"/>
      <path fill="none" d="M992.4 400 L1903.8868 400" stroke-width="7" clip-path="url(#clipPath2)"/>
      <path d="M1923.1368 400 L1902.1368 389.5 L1902.1368 410.5 Z" stroke-width="7" clip-path="url(#clipPath2)" stroke="none"/>
      <path fill="none" d="M992.4 951.1609 L1903.8868 951.1609" stroke-width="7" clip-path="url(#clipPath2)"/>
      <path d="M1923.1368 951.1609 L1902.1368 940.6609 L1902.1368 961.6609 Z" stroke-width="7" clip-path="url(#clipPath2)" stroke="none"/>
    </g>
  </g>
</svg>
