<?xml version="1.0" encoding="UTF-8"?><svg xmlns="http://www.w3.org/2000/svg" xmlns:xlink="http://www.w3.org/1999/xlink" fill-opacity="1" color-rendering="auto" color-interpolation="auto" text-rendering="auto" stroke="black" stroke-linecap="square" width="3096" stroke-miterlimit="10" shape-rendering="auto" stroke-opacity="1" fill="black" stroke-dasharray="none" font-weight="normal" stroke-width="1" height="1736" font-family="'Dialog'" font-style="normal" stroke-linejoin="miter" font-size="12px" stroke-dashoffset="0" image-rendering="auto">
  <!--Generated by ySVG 2.6-->
  <defs id="genericDefs"/>
  <g>
    <defs id="defs1">
      <clipPath clipPathUnits="userSpaceOnUse" id="clipPath1">
        <path d="M0 0 L3096 0 L3096 1736 L0 1736 L0 0 Z"/>
      </clipPath>
      <clipPath clipPathUnits="userSpaceOnUse" id="clipPath2">
        <path d="M684 242 L2232 242 L2232 1110 L684 1110 L684 242 Z"/>
      </clipPath>
    </defs>
    <g fill="rgb(253,223,187)" text-rendering="geometricPrecision" shape-rendering="geometricPrecision" transform="matrix(2,0,0,2,-1368,-484)" stroke="rgb(253,223,187)">
      <circle r="150" clip-path="url(#clipPath2)" cx="842.4" cy="400" stroke="none"/>
    </g>
    <g text-rendering="geometricPrecision" stroke-miterlimit="1.45" stroke-width="5" shape-rendering="geometricPrecision" transform="matrix(2,0,0,2,-1368,-484)" stroke-linecap="butt">
      <circle fill="none" r="150" clip-path="url(#clipPath2)" cx="842.4" cy="400"/>
      <text x="771.2281" font-size="80px" y="431.4258" clip-path="url(#clipPath2)" font-family="sans-serif" stroke="none" stroke-width="1" xml:space="preserve">A#1</text>
    </g>
    <g fill="rgb(253,223,187)" text-rendering="geometricPrecision" shape-rendering="geometricPrecision" transform="matrix(2,0,0,2,-1368,-484)" stroke="rgb(253,223,187)">
      <circle r="150" clip-path="url(#clipPath2)" cx="2073.1369" cy="400" stroke="none"/>
    </g>
    <g text-rendering="geometricPrecision" stroke-miterlimit="1.45" stroke-width="5" shape-rendering="geometricPrecision" transform="matrix(2,0,0,2,-1368,-484)" stroke-linecap="butt">
      <circle fill="none" r="150" clip-path="url(#clipPath2)" cx="2073.1369" cy="400"/>
      <text x="2001.965" font-size="80px" y="431.4258" clip-path="url(#clipPath2)" font-family="sans-serif" stroke="none" stroke-width="1" xml:space="preserve">B#1</text>
    </g>
    <g fill="rgb(253,223,187)" text-rendering="geometricPrecision" shape-rendering="geometricPrecision" transform="matrix(2,0,0,2,-1368,-484)" stroke="rgb(253,223,187)">
      <circle r="150" clip-path="url(#clipPath2)" cx="842.4" cy="951.1609" stroke="none"/>
    </g>
    <g text-rendering="geometricPrecision" stroke-miterlimit="1.45" stroke-width="5" shape-rendering="geometricPrecision" transform="matrix(2,0,0,2,-1368,-484)" stroke-linecap="butt">
      <circle fill="none" r="150" clip-path="url(#clipPath2)" cx="842.4" cy="951.1609"/>
      <text x="771.2281" font-size="80px" y="982.5867" clip-path="url(#clipPath2)" font-family="sans-serif" stroke="none" stroke-width="1" xml:space="preserve">A#2</text>
    </g>
    <g fill="rgb(253,223,187)" text-rendering="geometricPrecision" shape-rendering="geometricPrecision" transform="matrix(2,0,0,2,-1368,-484)" stroke="rgb(253,223,187)">
      <circle r="150" clip-path="url(#clipPath2)" cx="2073.1369" cy="951.1609" stroke="none"/>
    </g>
    <g text-rendering="geometricPrecision" stroke-miterlimit="1.45" stroke-width="5" shape-rendering="geometricPrecision" transform="matrix(2,0,0,2,-1368,-484)" stroke-linecap="butt">
      <circle fill="none" r="150" clip-path="url(#clipPath2)" cx="2073.1369" cy="951.1609"/>
      <text x="2001.965" font-size="80px" y="982.5867" clip-path="url(#clipPath2)" font-family="sans-serif" stroke="none" stroke-width="1" xml:space="preserve">B#2</text>
    </g>
    <g fill="rgb(177,212,234)" text-rendering="geometricPrecision" shape-rendering="geometricPrecision" transform="matrix(2,0,0,2,-1368,-484)" stroke="rgb(177,212,234)">
      <rect x="1366.6672" width="75" height="75" y="305" clip-path="url(#clipPath2)" stroke="none"/>
    </g>
    <g text-rendering="geometricPrecision" stroke-miterlimit="1.45" stroke-width="3" shape-rendering="geometricPrecision" transform="matrix(2,0,0,2,-1368,-484)" stroke-linecap="butt">
      <rect fill="none" x="1366.6672" width="75" height="75" y="305" clip-path="url(#clipPath2)"/>
    </g>
    <g fill="rgb(102,190,142)" text-rendering="geometricPrecision" shape-rendering="geometricPrecision" transform="matrix(2,0,0,2,-1368,-484)" stroke="rgb(102,190,142)">
      <rect x="1256.0905" width="75" height="75" y="492.03" clip-path="url(#clipPath2)" stroke="none"/>
    </g>
    <g text-rendering="geometricPrecision" stroke-miterlimit="1.45" stroke-width="3" shape-rendering="geometricPrecision" transform="matrix(2,0,0,2,-1368,-484)" stroke-linecap="butt">
      <rect fill="none" x="1256.0905" width="75" height="75" y="492.03" clip-path="url(#clipPath2)"/>
    </g>
    <g fill="rgb(177,212,234)" text-rendering="geometricPrecision" shape-rendering="geometricPrecision" transform="matrix(2,0,0,2,-1368,-484)" stroke="rgb(177,212,234)">
      <circle r="37.5" clip-path="url(#clipPath2)" cx="1125.4984" cy="762.4483" stroke="none"/>
    </g>
    <g text-rendering="geometricPrecision" stroke-miterlimit="1.45" stroke-width="3" shape-rendering="geometricPrecision" transform="matrix(2,0,0,2,-1368,-484)" stroke-linecap="butt">
      <circle fill="none" r="37.5" clip-path="url(#clipPath2)" cx="1125.4984" cy="762.4483"/>
    </g>
    <g fill="rgb(102,190,142)" text-rendering="geometricPrecision" shape-rendering="geometricPrecision" transform="matrix(2,0,0,2,-1368,-484)" stroke="rgb(102,190,142)">
      <circle r="37.5" clip-path="url(#clipPath2)" cx="1457.7684" cy="886.6633" stroke="none"/>
    </g>
    <g text-rendering="geometricPrecision" stroke-miterlimit="1.45" stroke-width="3" shape-rendering="geometricPrecision" transform="matrix(2,0,0,2,-1368,-484)" stroke-linecap="butt">
      <circle fill="none" r="37.5" clip-path="url(#clipPath2)" cx="1457.7684" cy="886.6633"/>
    </g>
    <g fill="rgb(177,212,234)" text-rendering="geometricPrecision" shape-rendering="geometricPrecision" transform="matrix(2,0,0,2,-1368,-484)" stroke="rgb(177,212,234)">
      <circle r="37.5" clip-path="url(#clipPath2)" cx="1218.0381" cy="719.66" stroke="none"/>
    </g>
    <g text-rendering="geometricPrecision" stroke-miterlimit="1.45" stroke-width="3" shape-rendering="geometricPrecision" transform="matrix(2,0,0,2,-1368,-484)" stroke-linecap="butt">
      <circle fill="none" r="37.5" clip-path="url(#clipPath2)" cx="1218.0381" cy="719.66"/>
    </g>
    <g fill="rgb(102,190,142)" text-rendering="geometricPrecision" shape-rendering="geometricPrecision" transform="matrix(2,0,0,2,-1368,-484)" stroke="rgb(102,190,142)">
      <rect x="1471.6672" width="75" height="75" y="305" clip-path="url(#clipPath2)" stroke="none"/>
    </g>
    <g text-rendering="geometricPrecision" stroke-miterlimit="1.45" stroke-width="3" shape-rendering="geometricPrecision" transform="matrix(2,0,0,2,-1368,-484)" stroke-linecap="butt">
      <rect fill="none" x="1471.6672" width="75" height="75" y="305" clip-path="url(#clipPath2)"/>
      <path fill="none" d="M992.4 400 L1903.8868 400" stroke-width="7" clip-path="url(#clipPath2)"/>
      <path d="M1923.1368 400 L1902.1368 389.5 L1902.1368 410.5 Z" stroke-width="7" clip-path="url(#clipPath2)" stroke="none"/>
      <path fill="none" d="M979.2992 889.8534 L1923.4604 467.0296" stroke-width="7" clip-path="url(#clipPath2)"/>
      <path d="M1936.2377 461.3076 L1913.4955 461.9049 L1921.8633 467.7449 L1920.6481 477.8764 Z" stroke-width="7" clip-path="url(#clipPath2)" stroke="none"/>
      <path fill="none" d="M992.4 951.1609 L1903.8868 951.1609" stroke-width="7" clip-path="url(#clipPath2)"/>
      <path d="M1923.1368 951.1609 L1902.1368 940.6609 L1902.1368 961.6609 Z" stroke-width="7" clip-path="url(#clipPath2)" stroke="none"/>
      <path fill="none" d="M979.2992 461.3076 L1923.4604 884.1313" stroke-width="7" clip-path="url(#clipPath2)"/>
      <path d="M1936.2377 889.8534 L1920.6481 873.2845 L1921.8633 883.4161 L1913.4955 889.2561 Z" stroke-width="7" clip-path="url(#clipPath2)" stroke="none"/>
    </g>
  </g>
</svg>
