<?xml version="1.0" encoding="UTF-8"?><svg xmlns="http://www.w3.org/2000/svg" xmlns:xlink="http://www.w3.org/1999/xlink" fill-opacity="1" color-rendering="auto" color-interpolation="auto" text-rendering="auto" stroke="black" stroke-linecap="square" width="2700" stroke-miterlimit="10" shape-rendering="auto" stroke-opacity="1" fill="black" stroke-dasharray="none" font-weight="normal" stroke-width="1" height="1808" font-family="'Dialog'" font-style="normal" stroke-linejoin="miter" font-size="12px" stroke-dashoffset="0" image-rendering="auto">
  <!--Generated by ySVG 2.6-->
  <defs id="genericDefs"/>
  <g>
    <defs id="defs1">
      <clipPath clipPathUnits="userSpaceOnUse" id="clipPath1">
        <path d="M0 0 L2700 0 L2700 1808 L0 1808 L0 0 Z"/>
      </clipPath>
      <clipPath clipPathUnits="userSpaceOnUse" id="clipPath2">
        <path d="M436 330 L1968.6993 330 L1968.6993 1356.3409 L436 1356.3409 L436 330 Z"/>
      </clipPath>
    </defs>
    <g fill="white" text-rendering="geometricPrecision" shape-rendering="geometricPrecision" transform="scale(1.7616,1.7616) translate(-436,-330)" stroke="white">
      <rect x="436" width="1533" height="1027" y="330" clip-path="url(#clipPath2)" stroke="none"/>
    </g>
    <g fill="rgb(253,223,187)" text-rendering="geometricPrecision" shape-rendering="geometricPrecision" transform="matrix(1.7616,0,0,1.7616,-768.0567,-581.3273)" stroke="rgb(253,223,187)">
      <circle r="150" clip-path="url(#clipPath2)" cx="842.4" cy="951.1609" stroke="none"/>
    </g>
    <g text-rendering="geometricPrecision" stroke-miterlimit="1.45" stroke-width="5" shape-rendering="geometricPrecision" transform="matrix(1.7616,0,0,1.7616,-768.0567,-581.3273)" stroke-linecap="butt">
      <circle fill="none" r="150" clip-path="url(#clipPath2)" cx="842.4" cy="951.1609"/>
      <text x="815.7203" font-size="80px" y="982.5867" clip-path="url(#clipPath2)" font-family="sans-serif" stroke="none" stroke-width="1" xml:space="preserve">A</text>
    </g>
    <g fill="rgb(253,223,187)" text-rendering="geometricPrecision" shape-rendering="geometricPrecision" transform="matrix(1.7616,0,0,1.7616,-768.0567,-581.3273)" stroke="rgb(253,223,187)">
      <circle r="150" clip-path="url(#clipPath2)" cx="1607.6504" cy="951.1609" stroke="none"/>
    </g>
    <g text-rendering="geometricPrecision" stroke-miterlimit="1.45" stroke-width="5" shape-rendering="geometricPrecision" transform="matrix(1.7616,0,0,1.7616,-768.0567,-581.3273)" stroke-linecap="butt">
      <circle fill="none" r="150" clip-path="url(#clipPath2)" cx="1607.6504" cy="951.1609"/>
      <text x="1580.9707" font-size="80px" y="982.5867" clip-path="url(#clipPath2)" font-family="sans-serif" stroke="none" stroke-width="1" xml:space="preserve">B</text>
      <path fill="none" d="M992.4 951.1609 L1438.4004 951.1609" stroke-width="7" clip-path="url(#clipPath2)"/>
      <path d="M1457.6504 951.1609 L1436.6504 940.6609 L1436.6504 961.6609 Z" stroke-width="7" clip-path="url(#clipPath2)" stroke="none"/>
    </g>
  </g>
</svg>
