<?xml version="1.0" encoding="UTF-8"?><svg xmlns="http://www.w3.org/2000/svg" xmlns:xlink="http://www.w3.org/1999/xlink" fill-opacity="1" color-rendering="auto" color-interpolation="auto" text-rendering="auto" stroke="black" stroke-linecap="square" width="2700" stroke-miterlimit="10" shape-rendering="auto" stroke-opacity="1" fill="black" stroke-dasharray="none" font-weight="normal" stroke-width="1" height="1808" font-family="'Dialog'" font-style="normal" stroke-linejoin="miter" font-size="12px" stroke-dashoffset="0" image-rendering="auto">
  <!--Generated by ySVG 2.6-->
  <defs id="genericDefs"/>
  <g>
    <defs id="defs1">
      <clipPath clipPathUnits="userSpaceOnUse" id="clipPath1">
        <path d="M0 0 L2700 0 L2700 1808 L0 1808 L0 0 Z"/>
      </clipPath>
      <clipPath clipPathUnits="userSpaceOnUse" id="clipPath2">
        <path d="M1056 42 L4351.8984 42 L4351.8984 2249.0312 L1056 2249.0312 L1056 42 Z"/>
      </clipPath>
    </defs>
    <g fill="white" text-rendering="geometricPrecision" shape-rendering="geometricPrecision" transform="scale(0.8192,0.8192) translate(-1056,-42)" stroke="white">
      <rect x="1056" width="3296" height="2208" y="42" clip-path="url(#clipPath2)" stroke="none"/>
    </g>
    <g fill="rgb(253,223,187)" text-rendering="geometricPrecision" shape-rendering="geometricPrecision" transform="matrix(0.8192,0,0,0.8192,-865.0752,-34.4064)" stroke="rgb(253,223,187)">
      <rect x="1492.7916" width="450" height="1250" y="612.2188" clip-path="url(#clipPath2)" stroke="none"/>
    </g>
    <g text-rendering="geometricPrecision" stroke-miterlimit="1.45" shape-rendering="geometricPrecision" transform="matrix(0.8192,0,0,0.8192,-865.0752,-34.4064)" stroke-linecap="butt">
      <rect fill="none" x="1492.7916" width="450" height="1250" y="612.2188" clip-path="url(#clipPath2)"/>
      <text x="1584.3932" font-size="40px" y="658.4336" clip-path="url(#clipPath2)" font-family="sans-serif" stroke="none" xml:space="preserve">TaskManager1</text>
    </g>
    <g fill="rgb(177,212,234)" text-rendering="geometricPrecision" shape-rendering="geometricPrecision" transform="matrix(0.8192,0,0,0.8192,-865.0752,-34.4064)" stroke="rgb(177,212,234)">
      <rect x="1207.7916" width="1500" height="1750" y="188.2881" clip-path="url(#clipPath2)" stroke="none"/>
    </g>
    <g text-rendering="geometricPrecision" stroke-miterlimit="1.45" shape-rendering="geometricPrecision" transform="matrix(0.8192,0,0,0.8192,-865.0752,-34.4064)" stroke-linecap="butt">
      <rect fill="none" x="1207.7916" width="1500" height="1750" y="188.2881" clip-path="url(#clipPath2)"/>
      <text x="1690.9948" font-size="80px" y="274.7178" clip-path="url(#clipPath2)" font-family="sans-serif" stroke="none" xml:space="preserve">TaskManager1</text>
    </g>
    <g fill="rgb(253,223,187)" text-rendering="geometricPrecision" shape-rendering="geometricPrecision" transform="matrix(0.8192,0,0,0.8192,-865.0752,-34.4064)" stroke="rgb(253,223,187)">
      <rect x="1242.7916" width="700" height="1500" y="340.5244" clip-path="url(#clipPath2)" stroke="none"/>
    </g>
    <g text-rendering="geometricPrecision" stroke-miterlimit="1.45" shape-rendering="geometricPrecision" transform="matrix(0.8192,0,0,0.8192,-865.0752,-34.4064)" stroke-linecap="butt">
      <rect fill="none" x="1242.7916" width="700" height="1500" y="340.5244" clip-path="url(#clipPath2)"/>
      <text x="1457.1471" font-size="80px" y="426.9541" clip-path="url(#clipPath2)" font-family="sans-serif" stroke="none" xml:space="preserve">Slot 1.1</text>
    </g>
    <g fill="rgb(253,223,187)" text-rendering="geometricPrecision" shape-rendering="geometricPrecision" transform="matrix(0.8192,0,0,0.8192,-865.0752,-34.4064)" stroke="rgb(253,223,187)">
      <rect x="1972.7916" width="700" height="1500" y="340.5244" clip-path="url(#clipPath2)" stroke="none"/>
    </g>
    <g text-rendering="geometricPrecision" stroke-miterlimit="1.45" shape-rendering="geometricPrecision" transform="matrix(0.8192,0,0,0.8192,-865.0752,-34.4064)" stroke-linecap="butt">
      <rect fill="none" x="1972.7916" width="700" height="1500" y="340.5244" clip-path="url(#clipPath2)"/>
      <text x="2187.147" font-size="80px" y="426.9541" clip-path="url(#clipPath2)" font-family="sans-serif" stroke="none" xml:space="preserve">Slot 1.2</text>
    </g>
    <g fill="rgb(177,212,234)" text-rendering="geometricPrecision" shape-rendering="geometricPrecision" transform="matrix(0.8192,0,0,0.8192,-865.0752,-34.4064)" stroke="rgb(177,212,234)">
      <rect x="1450.8971" width="250" height="200" y="1500" clip-path="url(#clipPath2)" stroke="none"/>
    </g>
    <g text-rendering="geometricPrecision" stroke-miterlimit="1.45" shape-rendering="geometricPrecision" transform="matrix(0.8192,0,0,0.8192,-865.0752,-34.4064)" stroke-linecap="butt">
      <rect fill="none" x="1450.8971" width="250" height="200" y="1500" clip-path="url(#clipPath2)"/>
      <text x="1478.0455" font-size="80px" y="1631.4258" clip-path="url(#clipPath2)" font-family="sans-serif" stroke="none" xml:space="preserve">Q1#1</text>
    </g>
    <g fill="rgb(177,212,234)" text-rendering="geometricPrecision" shape-rendering="geometricPrecision" transform="matrix(0.8192,0,0,0.8192,-865.0752,-34.4064)" stroke="rgb(177,212,234)">
      <rect x="1450.8971" width="250" height="200" y="865.4023" clip-path="url(#clipPath2)" stroke="none"/>
    </g>
    <g text-rendering="geometricPrecision" stroke-miterlimit="1.45" shape-rendering="geometricPrecision" transform="matrix(0.8192,0,0,0.8192,-865.0752,-34.4064)" stroke-linecap="butt">
      <rect fill="none" x="1450.8971" width="250" height="200" y="865.4023" clip-path="url(#clipPath2)"/>
      <text x="1478.0455" font-size="80px" y="996.8281" clip-path="url(#clipPath2)" font-family="sans-serif" stroke="none" xml:space="preserve">Op#1</text>
    </g>
    <g fill="rgb(177,212,234)" text-rendering="geometricPrecision" shape-rendering="geometricPrecision" transform="matrix(0.8192,0,0,0.8192,-865.0752,-34.4064)" stroke="rgb(177,212,234)">
      <rect x="2197.7916" width="250" height="200" y="1500" clip-path="url(#clipPath2)" stroke="none"/>
    </g>
    <g text-rendering="geometricPrecision" stroke-miterlimit="1.45" shape-rendering="geometricPrecision" transform="matrix(0.8192,0,0,0.8192,-865.0752,-34.4064)" stroke-linecap="butt">
      <rect fill="none" x="2197.7916" width="250" height="200" y="1500" clip-path="url(#clipPath2)"/>
      <text x="2224.9399" font-size="80px" y="1631.4258" clip-path="url(#clipPath2)" font-family="sans-serif" stroke="none" xml:space="preserve">Q2#1</text>
    </g>
    <g fill="rgb(177,212,234)" text-rendering="geometricPrecision" shape-rendering="geometricPrecision" transform="matrix(0.8192,0,0,0.8192,-865.0752,-34.4064)" stroke="rgb(177,212,234)">
      <rect x="2197.7916" width="250" height="200" y="994.9155" clip-path="url(#clipPath2)" stroke="none"/>
    </g>
    <g text-rendering="geometricPrecision" stroke-miterlimit="1.45" shape-rendering="geometricPrecision" transform="matrix(0.8192,0,0,0.8192,-865.0752,-34.4064)" stroke-linecap="butt">
      <rect fill="none" x="2197.7916" width="250" height="200" y="994.9155" clip-path="url(#clipPath2)"/>
      <text x="2224.9399" font-size="80px" y="1126.3413" clip-path="url(#clipPath2)" font-family="sans-serif" stroke="none" xml:space="preserve">Op#2</text>
    </g>
    <g fill="rgb(177,212,234)" text-rendering="geometricPrecision" shape-rendering="geometricPrecision" transform="matrix(0.8192,0,0,0.8192,-865.0752,-34.4064)" stroke="rgb(177,212,234)">
      <rect x="2197.7916" width="250" height="200" y="489.8311" clip-path="url(#clipPath2)" stroke="none"/>
    </g>
    <g text-rendering="geometricPrecision" stroke-miterlimit="1.45" shape-rendering="geometricPrecision" transform="matrix(0.8192,0,0,0.8192,-865.0752,-34.4064)" stroke-linecap="butt">
      <rect fill="none" x="2197.7916" width="250" height="200" y="489.8311" clip-path="url(#clipPath2)"/>
      <text x="2251.6196" font-size="80px" y="621.2568" clip-path="url(#clipPath2)" font-family="sans-serif" stroke="none" xml:space="preserve">S#1</text>
    </g>
    <g fill="rgb(253,223,187)" text-rendering="geometricPrecision" shape-rendering="geometricPrecision" transform="matrix(0.8192,0,0,0.8192,-865.0752,-34.4064)" stroke="rgb(253,223,187)">
      <rect x="3054.294" width="450" height="1250" y="612.2188" clip-path="url(#clipPath2)" stroke="none"/>
    </g>
    <g text-rendering="geometricPrecision" stroke-miterlimit="1.45" shape-rendering="geometricPrecision" transform="matrix(0.8192,0,0,0.8192,-865.0752,-34.4064)" stroke-linecap="butt">
      <rect fill="none" x="3054.294" width="450" height="1250" y="612.2188" clip-path="url(#clipPath2)"/>
      <text x="3145.8955" font-size="40px" y="658.4336" clip-path="url(#clipPath2)" font-family="sans-serif" stroke="none" xml:space="preserve">TaskManager1</text>
    </g>
    <g fill="rgb(177,212,234)" text-rendering="geometricPrecision" shape-rendering="geometricPrecision" transform="matrix(0.8192,0,0,0.8192,-865.0752,-34.4064)" stroke="rgb(177,212,234)">
      <rect x="2769.294" width="1500" height="1750" y="188.2881" clip-path="url(#clipPath2)" stroke="none"/>
    </g>
    <g text-rendering="geometricPrecision" stroke-miterlimit="1.45" shape-rendering="geometricPrecision" transform="matrix(0.8192,0,0,0.8192,-865.0752,-34.4064)" stroke-linecap="butt">
      <rect fill="none" x="2769.294" width="1500" height="1750" y="188.2881" clip-path="url(#clipPath2)"/>
      <text x="3252.4971" font-size="80px" y="274.7178" clip-path="url(#clipPath2)" font-family="sans-serif" stroke="none" xml:space="preserve">TaskManager2</text>
    </g>
    <g fill="rgb(253,223,187)" text-rendering="geometricPrecision" shape-rendering="geometricPrecision" transform="matrix(0.8192,0,0,0.8192,-865.0752,-34.4064)" stroke="rgb(253,223,187)">
      <rect x="2804.294" width="700" height="1500" y="346.8379" clip-path="url(#clipPath2)" stroke="none"/>
    </g>
    <g text-rendering="geometricPrecision" stroke-miterlimit="1.45" shape-rendering="geometricPrecision" transform="matrix(0.8192,0,0,0.8192,-865.0752,-34.4064)" stroke-linecap="butt">
      <rect fill="none" x="2804.294" width="700" height="1500" y="346.8379" clip-path="url(#clipPath2)"/>
      <text x="3018.6494" font-size="80px" y="433.2676" clip-path="url(#clipPath2)" font-family="sans-serif" stroke="none" xml:space="preserve">Slot 2.1</text>
    </g>
    <g fill="rgb(253,223,187)" text-rendering="geometricPrecision" shape-rendering="geometricPrecision" transform="matrix(0.8192,0,0,0.8192,-865.0752,-34.4064)" stroke="rgb(253,223,187)">
      <rect x="3534.294" width="700" height="1500" y="346.8379" clip-path="url(#clipPath2)" stroke="none"/>
    </g>
    <g text-rendering="geometricPrecision" stroke-miterlimit="1.45" shape-rendering="geometricPrecision" transform="matrix(0.8192,0,0,0.8192,-865.0752,-34.4064)" stroke-linecap="butt">
      <rect fill="none" x="3534.294" width="700" height="1500" y="346.8379" clip-path="url(#clipPath2)"/>
      <text x="3748.6494" font-size="80px" y="433.2676" clip-path="url(#clipPath2)" font-family="sans-serif" stroke="none" xml:space="preserve">Slot 2.2</text>
    </g>
    <g fill="rgb(177,212,234)" text-rendering="geometricPrecision" shape-rendering="geometricPrecision" transform="matrix(0.8192,0,0,0.8192,-865.0752,-34.4064)" stroke="rgb(177,212,234)">
      <rect x="3029.294" width="250" height="200" y="1500" clip-path="url(#clipPath2)" stroke="none"/>
    </g>
    <g text-rendering="geometricPrecision" stroke-miterlimit="1.45" shape-rendering="geometricPrecision" transform="matrix(0.8192,0,0,0.8192,-865.0752,-34.4064)" stroke-linecap="butt">
      <rect fill="none" x="3029.294" width="250" height="200" y="1500" clip-path="url(#clipPath2)"/>
      <text x="3056.4424" font-size="80px" y="1631.4258" clip-path="url(#clipPath2)" font-family="sans-serif" stroke="none" xml:space="preserve">Q1#2</text>
    </g>
    <g fill="rgb(177,212,234)" text-rendering="geometricPrecision" shape-rendering="geometricPrecision" transform="matrix(0.8192,0,0,0.8192,-865.0752,-34.4064)" stroke="rgb(177,212,234)">
      <rect x="3029.294" width="250" height="200" y="994.9155" clip-path="url(#clipPath2)" stroke="none"/>
    </g>
    <g text-rendering="geometricPrecision" stroke-miterlimit="1.45" shape-rendering="geometricPrecision" transform="matrix(0.8192,0,0,0.8192,-865.0752,-34.4064)" stroke-linecap="butt">
      <rect fill="none" x="3029.294" width="250" height="200" y="994.9155" clip-path="url(#clipPath2)"/>
      <text x="3056.4424" font-size="80px" y="1126.3413" clip-path="url(#clipPath2)" font-family="sans-serif" stroke="none" xml:space="preserve">Op#3</text>
    </g>
    <g fill="rgb(177,212,234)" text-rendering="geometricPrecision" shape-rendering="geometricPrecision" transform="matrix(0.8192,0,0,0.8192,-865.0752,-34.4064)" stroke="rgb(177,212,234)">
      <rect x="3029.294" width="250" height="200" y="489.8311" clip-path="url(#clipPath2)" stroke="none"/>
    </g>
    <g text-rendering="geometricPrecision" stroke-miterlimit="1.45" shape-rendering="geometricPrecision" transform="matrix(0.8192,0,0,0.8192,-865.0752,-34.4064)" stroke-linecap="butt">
      <rect fill="none" x="3029.294" width="250" height="200" y="489.8311" clip-path="url(#clipPath2)"/>
      <text x="3083.1221" font-size="80px" y="621.2568" clip-path="url(#clipPath2)" font-family="sans-serif" stroke="none" xml:space="preserve">S#2</text>
    </g>
    <g fill="rgb(177,212,234)" text-rendering="geometricPrecision" shape-rendering="geometricPrecision" transform="matrix(0.8192,0,0,0.8192,-865.0752,-34.4064)" stroke="rgb(177,212,234)">
      <rect x="3759.294" width="250" height="200" y="865.4023" clip-path="url(#clipPath2)" stroke="none"/>
    </g>
    <g text-rendering="geometricPrecision" stroke-miterlimit="1.45" shape-rendering="geometricPrecision" transform="matrix(0.8192,0,0,0.8192,-865.0752,-34.4064)" stroke-linecap="butt">
      <rect fill="none" x="3759.294" width="250" height="200" y="865.4023" clip-path="url(#clipPath2)"/>
      <text x="3786.4424" font-size="80px" y="996.8281" clip-path="url(#clipPath2)" font-family="sans-serif" stroke="none" xml:space="preserve">Op#4</text>
    </g>
    <g fill="rgb(177,212,234)" text-rendering="geometricPrecision" shape-rendering="geometricPrecision" transform="matrix(0.8192,0,0,0.8192,-865.0752,-34.4064)" stroke="rgb(177,212,234)">
      <rect x="3759.294" width="250" height="200" y="1500" clip-path="url(#clipPath2)" stroke="none"/>
    </g>
    <g text-rendering="geometricPrecision" stroke-miterlimit="1.45" shape-rendering="geometricPrecision" transform="matrix(0.8192,0,0,0.8192,-865.0752,-34.4064)" stroke-linecap="butt">
      <rect fill="none" x="3759.294" width="250" height="200" y="1500" clip-path="url(#clipPath2)"/>
      <text x="3786.4424" font-size="80px" y="1631.4258" clip-path="url(#clipPath2)" font-family="sans-serif" stroke="none" xml:space="preserve">Q2#2</text>
      <path fill="none" d="M1575.8971 1500 L1575.8971 1079.4023" stroke-width="7" clip-path="url(#clipPath2)"/>
      <path d="M1575.8971 1065.4023 L1567.1471 1086.4023 L1575.8971 1081.1523 L1584.6471 1086.4023 Z" stroke-width="7" clip-path="url(#clipPath2)" stroke="none"/>
      <path fill="none" d="M2205.0959 1500 L1704.2618 1074.4673" stroke-width="7" clip-path="url(#clipPath2)"/>
      <path d="M1693.5929 1065.4023 L1703.9308 1085.6678 L1705.5955 1075.6005 L1715.262 1072.3317 Z" stroke-width="7" clip-path="url(#clipPath2)" stroke="none"/>
      <path fill="none" d="M2322.7915 1500 L2322.7915 1208.9155" stroke-width="7" clip-path="url(#clipPath2)"/>
      <path d="M2322.7915 1194.9155 L2314.0415 1215.9155 L2322.7915 1210.6655 L2331.5415 1215.9155 Z" stroke-width="7" clip-path="url(#clipPath2)" stroke="none"/>
      <path fill="none" d="M1700.8971 1515.4692 L2186.1943 1187.2888" stroke-width="7" clip-path="url(#clipPath2)"/>
      <path d="M2197.7915 1179.4463 L2175.4941 1183.9619 L2184.7446 1188.2692 L2185.2974 1198.4584 Z" stroke-width="7" clip-path="url(#clipPath2)" stroke="none"/>
      <path fill="none" d="M2322.7915 994.9155 L2322.7915 703.8311" stroke-width="7" clip-path="url(#clipPath2)"/>
      <path d="M2322.7915 689.8311 L2314.0415 710.8311 L2322.7915 705.5811 L2331.5415 710.8311 Z" stroke-width="7" clip-path="url(#clipPath2)" stroke="none"/>
      <path fill="none" d="M1700.8971 902.5469 L2185.2839 658.976" stroke-width="7" clip-path="url(#clipPath2)"/>
      <path d="M2197.7915 652.6865 L2175.0991 654.3034 L2183.7205 659.7621 L2182.9609 669.938 Z" stroke-width="7" clip-path="url(#clipPath2)" stroke="none"/>
      <path fill="none" d="M3154.2939 1500 L3154.2939 1208.9155" stroke-width="7" clip-path="url(#clipPath2)"/>
      <path d="M3154.2939 1194.9155 L3145.5439 1215.9155 L3154.2939 1210.6655 L3163.0439 1215.9155 Z" stroke-width="7" clip-path="url(#clipPath2)" stroke="none"/>
      <path fill="none" d="M3154.2939 994.9155 L3154.2939 703.8311" stroke-width="7" clip-path="url(#clipPath2)"/>
      <path d="M3154.2939 689.8311 L3145.5439 710.8311 L3154.2939 705.5811 L3163.0439 710.8311 Z" stroke-width="7" clip-path="url(#clipPath2)" stroke="none"/>
      <path fill="none" d="M3269.3274 1500 L3758.6946 1074.5873" stroke-width="7" clip-path="url(#clipPath2)"/>
      <path d="M3769.2605 1065.4023 L3747.6711 1072.576 L3757.3738 1075.7354 L3759.1523 1085.7833 Z" stroke-width="7" clip-path="url(#clipPath2)" stroke="none"/>
      <path fill="none" d="M3759.2939 901.0922 L3291.7429 660.546" stroke-width="7" clip-path="url(#clipPath2)"/>
      <path d="M3279.2939 654.1412 L3293.9646 671.5291 L3293.2991 661.3467 L3301.9705 655.9678 Z" stroke-width="7" clip-path="url(#clipPath2)" stroke="none"/>
      <path fill="none" d="M3884.2939 1500 L3884.2939 1079.4023" stroke-width="7" clip-path="url(#clipPath2)"/>
      <path d="M3884.2939 1065.4023 L3875.5439 1086.4023 L3884.2939 1081.1523 L3893.0439 1086.4023 Z" stroke-width="7" clip-path="url(#clipPath2)" stroke="none"/>
      <path fill="none" d="M3759.2939 1513.5129 L3290.8069 1189.3683" stroke-width="7" clip-path="url(#clipPath2)"/>
      <path d="M3279.2939 1181.4026 L3291.5847 1200.5468 L3292.2461 1190.364 L3301.542 1186.1555 Z" stroke-width="7" clip-path="url(#clipPath2)" stroke="none"/>
    </g>
  </g>
</svg>
