<?xml version="1.0" encoding="UTF-8"?><svg xmlns="http://www.w3.org/2000/svg" xmlns:xlink="http://www.w3.org/1999/xlink" fill-opacity="1" color-rendering="auto" color-interpolation="auto" text-rendering="auto" stroke="black" stroke-linecap="square" width="2277" stroke-miterlimit="10" shape-rendering="auto" stroke-opacity="1" fill="black" stroke-dasharray="none" font-weight="normal" stroke-width="1" height="1230" font-family="'Dialog'" font-style="normal" stroke-linejoin="miter" font-size="12px" stroke-dashoffset="0" image-rendering="auto">
  <!--Generated by ySVG 2.6-->
  <defs id="genericDefs"/>
  <g>
    <defs id="defs1">
      <clipPath clipPathUnits="userSpaceOnUse" id="clipPath1">
        <path d="M0 0 L2277 0 L2277 1230 L0 1230 L0 0 Z"/>
      </clipPath>
      <clipPath clipPathUnits="userSpaceOnUse" id="clipPath2">
        <path d="M249 -315 L2526 -315 L2526 915 L249 915 L249 -315 Z"/>
      </clipPath>
    </defs>
    <g fill="white" text-rendering="geometricPrecision" shape-rendering="geometricPrecision" transform="translate(-249,315)" stroke="white">
      <rect x="249" width="2277" height="1230" y="-315" clip-path="url(#clipPath2)" stroke="none"/>
    </g>
    <g fill="rgb(177,212,234)" text-rendering="geometricPrecision" shape-rendering="geometricPrecision" transform="matrix(1,0,0,1,-249,315)" stroke="rgb(177,212,234)">
      <circle r="150" clip-path="url(#clipPath2)" cx="414.6" cy="300" stroke="none"/>
    </g>
    <g text-rendering="geometricPrecision" stroke-miterlimit="1.45" stroke-width="5" shape-rendering="geometricPrecision" transform="matrix(1,0,0,1,-249,315)" stroke-linecap="butt">
      <circle fill="none" r="150" clip-path="url(#clipPath2)" cx="414.6" cy="300"/>
      <text x="301.1527" font-size="40px" y="266.2107" clip-path="url(#clipPath2)" font-family="sans-serif" stroke="none" stroke-width="1" xml:space="preserve">Abhebungen</text>
      <text x="343.4672" font-size="40px" y="320.7437" clip-path="url(#clipPath2)" font-family="sans-serif" stroke="none" stroke-width="1" xml:space="preserve">(Quelle)</text>
      <text x="304.6" font-size="30px" y="377.4509" clip-path="url(#clipPath2)" font-family="sans-serif" stroke="none" stroke-width="1" xml:space="preserve">Key By Benutzer</text>
    </g>
    <g fill="rgb(253,223,187)" text-rendering="geometricPrecision" shape-rendering="geometricPrecision" transform="matrix(1,0,0,1,-249,315)" stroke="rgb(253,223,187)">
      <circle r="150" clip-path="url(#clipPath2)" cx="1063.2469" cy="-150" stroke="none"/>
    </g>
    <g text-rendering="geometricPrecision" stroke-miterlimit="1.45" stroke-width="5" shape-rendering="geometricPrecision" transform="matrix(1,0,0,1,-249,315)" stroke-linecap="butt">
      <circle fill="none" r="150" clip-path="url(#clipPath2)" cx="1063.2469" cy="-150"/>
      <text x="988.0731" font-size="40px" y="-184.7996" clip-path="url(#clipPath2)" font-family="sans-serif" stroke="none" stroke-width="1" xml:space="preserve">Window</text>
      <text x="956.5184" font-size="40px" y="-115.6637" clip-path="url(#clipPath2)" font-family="sans-serif" stroke="none" stroke-width="1" xml:space="preserve">Operator #1</text>
    </g>
    <g fill="rgb(253,223,187)" text-rendering="geometricPrecision" shape-rendering="geometricPrecision" transform="matrix(1,0,0,1,-249,315)" stroke="rgb(253,223,187)">
      <circle r="150" clip-path="url(#clipPath2)" cx="1711.8937" cy="-150" stroke="none"/>
    </g>
    <g text-rendering="geometricPrecision" stroke-miterlimit="1.45" stroke-width="5" shape-rendering="geometricPrecision" transform="matrix(1,0,0,1,-249,315)" stroke-linecap="butt">
      <circle fill="none" r="150" clip-path="url(#clipPath2)" cx="1711.8937" cy="-150"/>
      <text x="1639.6477" font-size="40px" y="-200.5246" clip-path="url(#clipPath2)" font-family="sans-serif" stroke="none" stroke-width="1" xml:space="preserve">Filter #1</text>
      <text x="1638.5051" font-size="40px" y="-134.2871" clip-path="url(#clipPath2)" font-family="sans-serif" stroke="none" stroke-width="1" xml:space="preserve">Abstand</text>
      <text x="1629.0715" font-size="40px" y="-81.034" clip-path="url(#clipPath2)" font-family="sans-serif" stroke="none" stroke-width="1" xml:space="preserve">&gt; 100 km</text>
    </g>
    <g fill="rgb(177,212,234)" text-rendering="geometricPrecision" shape-rendering="geometricPrecision" transform="matrix(1,0,0,1,-249,315)" stroke="rgb(177,212,234)">
      <circle r="150" clip-path="url(#clipPath2)" cx="2360.5406" cy="300" stroke="none"/>
    </g>
    <g text-rendering="geometricPrecision" stroke-miterlimit="1.45" stroke-width="5" shape-rendering="geometricPrecision" transform="matrix(1,0,0,1,-249,315)" stroke-linecap="butt">
      <circle fill="none" r="150" clip-path="url(#clipPath2)" cx="2360.5406" cy="300"/>
      <text x="2290.5112" font-size="40px" y="347.0306" clip-path="url(#clipPath2)" font-family="sans-serif" stroke="none" stroke-width="1" xml:space="preserve">(Senke)</text>
      <text x="2279.3882" font-size="40px" y="276.5486" clip-path="url(#clipPath2)" font-family="sans-serif" stroke="none" stroke-width="1" xml:space="preserve">Warnung</text>
    </g>
    <g fill="rgb(253,223,187)" text-rendering="geometricPrecision" shape-rendering="geometricPrecision" transform="matrix(1,0,0,1,-249,315)" stroke="rgb(253,223,187)">
      <circle r="150" clip-path="url(#clipPath2)" cx="1063.2469" cy="300" stroke="none"/>
    </g>
    <g text-rendering="geometricPrecision" stroke-miterlimit="1.45" stroke-width="5" shape-rendering="geometricPrecision" transform="matrix(1,0,0,1,-249,315)" stroke-linecap="butt">
      <circle fill="none" r="150" clip-path="url(#clipPath2)" cx="1063.2469" cy="300"/>
      <text x="992.1141" font-size="40px" y="260.1492" clip-path="url(#clipPath2)" font-family="sans-serif" stroke="none" stroke-width="1" xml:space="preserve">Window</text>
      <text x="956.5184" font-size="40px" y="334.9076" clip-path="url(#clipPath2)" font-family="sans-serif" stroke="none" stroke-width="1" xml:space="preserve">Operator #2</text>
    </g>
    <g fill="rgb(253,223,187)" text-rendering="geometricPrecision" shape-rendering="geometricPrecision" transform="matrix(1,0,0,1,-249,315)" stroke="rgb(253,223,187)">
      <circle r="150" clip-path="url(#clipPath2)" cx="1711.8937" cy="300" stroke="none"/>
    </g>
    <g text-rendering="geometricPrecision" stroke-miterlimit="1.45" stroke-width="5" shape-rendering="geometricPrecision" transform="matrix(1,0,0,1,-249,315)" stroke-linecap="butt">
      <circle fill="none" r="150" clip-path="url(#clipPath2)" cx="1711.8937" cy="300"/>
      <text x="1639.6477" font-size="40px" y="250.0467" clip-path="url(#clipPath2)" font-family="sans-serif" stroke="none" stroke-width="1" xml:space="preserve">Filter #2</text>
      <text x="1638.5051" font-size="40px" y="315.7129" clip-path="url(#clipPath2)" font-family="sans-serif" stroke="none" stroke-width="1" xml:space="preserve">Abstand</text>
      <text x="1629.0715" font-size="40px" y="377.3381" clip-path="url(#clipPath2)" font-family="sans-serif" stroke="none" stroke-width="1" xml:space="preserve">&gt; 100 km</text>
    </g>
    <g fill="rgb(253,223,187)" text-rendering="geometricPrecision" shape-rendering="geometricPrecision" transform="matrix(1,0,0,1,-249,315)" stroke="rgb(253,223,187)">
      <circle r="150" clip-path="url(#clipPath2)" cx="1063.2469" cy="750" stroke="none"/>
    </g>
    <g text-rendering="geometricPrecision" stroke-miterlimit="1.45" stroke-width="5" shape-rendering="geometricPrecision" transform="matrix(1,0,0,1,-249,315)" stroke-linecap="butt">
      <circle fill="none" r="150" clip-path="url(#clipPath2)" cx="1063.2469" cy="750"/>
      <text x="992.1141" font-size="40px" y="708.7" clip-path="url(#clipPath2)" font-family="sans-serif" stroke="none" stroke-width="1" xml:space="preserve">Window</text>
      <text x="956.5184" font-size="40px" y="786.7475" clip-path="url(#clipPath2)" font-family="sans-serif" stroke="none" stroke-width="1" xml:space="preserve">Operator #3</text>
    </g>
    <g fill="rgb(253,223,187)" text-rendering="geometricPrecision" shape-rendering="geometricPrecision" transform="matrix(1,0,0,1,-249,315)" stroke="rgb(253,223,187)">
      <circle r="150" clip-path="url(#clipPath2)" cx="1711.8937" cy="750" stroke="none"/>
    </g>
    <g text-rendering="geometricPrecision" stroke-miterlimit="1.45" stroke-width="5" shape-rendering="geometricPrecision" transform="matrix(1,0,0,1,-249,315)" stroke-linecap="butt">
      <circle fill="none" r="150" clip-path="url(#clipPath2)" cx="1711.8937" cy="750"/>
      <text x="1639.6477" font-size="40px" y="702.6385" clip-path="url(#clipPath2)" font-family="sans-serif" stroke="none" stroke-width="1" xml:space="preserve">Filter #3</text>
      <text x="1637.3625" font-size="40px" y="765.7129" clip-path="url(#clipPath2)" font-family="sans-serif" stroke="none" stroke-width="1" xml:space="preserve">Abstand</text>
      <text x="1629.0715" font-size="40px" y="830.2111" clip-path="url(#clipPath2)" font-family="sans-serif" stroke="none" stroke-width="1" xml:space="preserve">&gt; 100 km</text>
      <path fill="none" d="M537.8455 214.4982 L928.4985 -56.5181" stroke-width="7" clip-path="url(#clipPath2)"/>
      <path d="M940.0014 -64.4982 L917.7595 -59.7173 L927.0606 -55.5205 L927.7346 -45.3387 Z" stroke-width="7" clip-path="url(#clipPath2)" stroke="none"/>
      <path fill="none" d="M1213.2468 -150 L1542.6438 -150" stroke-width="7" clip-path="url(#clipPath2)"/>
      <path d="M1561.8938 -150 L1540.8938 -160.5 L1540.8938 -139.5 Z" stroke-width="7" clip-path="url(#clipPath2)" stroke="none"/>
      <path fill="none" d="M1835.1392 -64.4982 L2225.7922 206.5181" stroke-width="7" clip-path="url(#clipPath2)"/>
      <path d="M2237.2952 214.4982 L2225.0283 195.3386 L2224.3545 205.5205 L2215.0532 209.7173 Z" stroke-width="7" clip-path="url(#clipPath2)" stroke="none"/>
      <path fill="none" d="M564.6 300 L899.2469 300" stroke-width="7" clip-path="url(#clipPath2)"/>
      <path d="M913.2469 300 L892.2469 291.25 L897.4969 300 L892.2469 308.75 Z" stroke-width="7" clip-path="url(#clipPath2)" stroke="none"/>
      <path fill="none" d="M1186.4923 214.4982 L1577.1454 -56.5181" stroke-width="7" clip-path="url(#clipPath2)"/>
      <path d="M1588.6483 -64.4982 L1566.4064 -59.7173 L1575.7075 -55.5205 L1576.3816 -45.3387 Z" stroke-width="7" clip-path="url(#clipPath2)" stroke="none"/>
      <path fill="none" d="M1213.2468 300 L1542.6438 300" stroke-width="7" clip-path="url(#clipPath2)"/>
      <path d="M1561.8938 300 L1540.8938 289.5 L1540.8938 310.5 Z" stroke-width="7" clip-path="url(#clipPath2)" stroke="none"/>
      <path fill="none" d="M1186.4923 -64.4982 L1577.1454 206.5181" stroke-width="7" clip-path="url(#clipPath2)"/>
      <path d="M1588.6483 214.4982 L1576.3816 195.3386 L1575.7075 205.5205 L1566.4064 209.7173 Z" stroke-width="7" clip-path="url(#clipPath2)" stroke="none"/>
      <path fill="none" d="M1861.8938 300 L2196.5405 300" stroke-width="7" clip-path="url(#clipPath2)"/>
      <path d="M2210.5405 300 L2189.5405 291.25 L2194.7905 300 L2189.5405 308.75 Z" stroke-width="7" clip-path="url(#clipPath2)" stroke="none"/>
      <path fill="none" d="M537.8455 385.5018 L928.4985 656.5181" stroke-width="7" clip-path="url(#clipPath2)"/>
      <path d="M940.0014 664.4982 L927.7346 645.3387 L927.0606 655.5206 L917.7594 659.7173 Z" stroke-width="7" clip-path="url(#clipPath2)" stroke="none"/>
      <path fill="none" d="M1150.9502 628.3113 L1616.0048 -16.9537" stroke-width="7" clip-path="url(#clipPath2)"/>
      <path d="M1624.1904 -28.3113 L1604.8135 -16.391 L1614.9816 -15.534 L1619.0105 -6.1589 Z" stroke-width="7" clip-path="url(#clipPath2)" stroke="none"/>
      <path fill="none" d="M1186.4923 664.4982 L1577.1454 393.4819" stroke-width="7" clip-path="url(#clipPath2)"/>
      <path d="M1588.6483 385.5018 L1566.4064 390.2827 L1575.7075 394.4794 L1576.3816 404.6613 Z" stroke-width="7" clip-path="url(#clipPath2)" stroke="none"/>
      <path fill="none" d="M1213.2468 750 L1542.6438 750" stroke-width="7" clip-path="url(#clipPath2)"/>
      <path d="M1561.8938 750 L1540.8938 739.5 L1540.8938 760.5 Z" stroke-width="7" clip-path="url(#clipPath2)" stroke="none"/>
      <path fill="none" d="M1150.9502 -28.3113 L1616.0048 616.9537" stroke-width="7" clip-path="url(#clipPath2)"/>
      <path d="M1624.1904 628.3113 L1619.0104 606.1589 L1614.9816 615.5341 L1604.8135 616.391 Z" stroke-width="7" clip-path="url(#clipPath2)" stroke="none"/>
      <path fill="none" d="M1186.4923 385.5018 L1577.1454 656.5181" stroke-width="7" clip-path="url(#clipPath2)"/>
      <path d="M1588.6483 664.4982 L1576.3816 645.3387 L1575.7075 655.5206 L1566.4064 659.7173 Z" stroke-width="7" clip-path="url(#clipPath2)" stroke="none"/>
      <path fill="none" d="M1835.1392 664.4982 L2225.7922 393.4819" stroke-width="7" clip-path="url(#clipPath2)"/>
      <path d="M2237.2952 385.5018 L2215.0532 390.2827 L2224.3545 394.4794 L2225.0283 404.6613 Z" stroke-width="7" clip-path="url(#clipPath2)" stroke="none"/>
    </g>
  </g>
</svg>
